<svg
  id="visual"
  viewBox="0 0 960 540"
  width="960"
  height="540"
  xmlns="http://www.w3.org/2000/svg"
  xmlns:xlink="http://www.w3.org/1999/xlink"
  version="1.1"
>
  <path
    d="M0 222L22.8 213.8C45.7 205.7 91.3 189.3 137 177.3C182.7 165.3 228.3 157.7 274 154.3C319.7 151 365.3 152 411.2 152.8C457 153.7 503 154.3 548.8 163.3C594.7 172.3 640.3 189.7 686 197.2C731.7 204.7 777.3 202.3 823 195.2C868.7 188 914.3 176 937.2 170L960 164L960 0L937.2 0C914.3 0 868.7 0 823 0C777.3 0 731.7 0 686 0C640.3 0 594.7 0 548.8 0C503 0 457 0 411.2 0C365.3 0 319.7 0 274 0C228.3 0 182.7 0 137 0C91.3 0 45.7 0 22.8 0L0 0Z"
    fill="#f97516"
    style="animation: move 4s 0.8s infinite;"
  ></path>
  <path
    d="M0 112L22.8 122.5C45.7 133 91.3 154 137 161.2C182.7 168.3 228.3 161.7 274 159C319.7 156.3 365.3 157.7 411.2 151.2C457 144.7 503 130.3 548.8 125.8C594.7 121.3 640.3 126.7 686 130.8C731.7 135 777.3 138 823 146C868.7 154 914.3 167 937.2 173.5L960 180L960 0L937.2 0C914.3 0 868.7 0 823 0C777.3 0 731.7 0 686 0C640.3 0 594.7 0 548.8 0C503 0 457 0 411.2 0C365.3 0 319.7 0 274 0C228.3 0 182.7 0 137 0C91.3 0 45.7 0 22.8 0L0 0Z"
    fill="#f64540"
    style="animation: move 4s 0.6s infinite;"
  ></path>
  <path
    d="M0 90L22.8 95.8C45.7 101.7 91.3 113.3 137 115.5C182.7 117.7 228.3 110.3 274 103.8C319.7 97.3 365.3 91.7 411.2 94.2C457 96.7 503 107.3 548.8 114.3C594.7 121.3 640.3 124.7 686 122.7C731.7 120.7 777.3 113.3 823 114.2C868.7 115 914.3 124 937.2 128.5L960 133L960 0L937.2 0C914.3 0 868.7 0 823 0C777.3 0 731.7 0 686 0C640.3 0 594.7 0 548.8 0C503 0 457 0 411.2 0C365.3 0 319.7 0 274 0C228.3 0 182.7 0 137 0C91.3 0 45.7 0 22.8 0L0 0Z"
    fill="#e20e60"
    style="animation: move 4s 0.4s infinite;"
  ></path>
  <path
    d="M0 63L22.8 68.7C45.7 74.3 91.3 85.7 137 89.3C182.7 93 228.3 89 274 88.3C319.7 87.7 365.3 90.3 411.2 88.7C457 87 503 81 548.8 82C594.7 83 640.3 91 686 90C731.7 89 777.3 79 823 79.3C868.7 79.7 914.3 90.3 937.2 95.7L960 101L960 0L937.2 0C914.3 0 868.7 0 823 0C777.3 0 731.7 0 686 0C640.3 0 594.7 0 548.8 0C503 0 457 0 411.2 0C365.3 0 319.7 0 274 0C228.3 0 182.7 0 137 0C91.3 0 45.7 0 22.8 0L0 0Z"
    fill="#bc007c"
    style="animation: move 4s 0.2s infinite;"
  ></path>
  <path
    d="M0 61L22.8 57C45.7 53 91.3 45 137 42.2C182.7 39.3 228.3 41.7 274 43.5C319.7 45.3 365.3 46.7 411.2 48.2C457 49.7 503 51.3 548.8 48.2C594.7 45 640.3 37 686 32.8C731.7 28.7 777.3 28.3 823 34.2C868.7 40 914.3 52 937.2 58L960 64L960 0L937.2 0C914.3 0 868.7 0 823 0C777.3 0 731.7 0 686 0C640.3 0 594.7 0 548.8 0C503 0 457 0 411.2 0C365.3 0 319.7 0 274 0C228.3 0 182.7 0 137 0C91.3 0 45.7 0 22.8 0L0 0Z"
    fill="#85198f"
    style="animation: move 4s 0s infinite;"
  ></path>
  <style>
  @keyframes move {
    0%, 50%, 100% {
      translate: 0 0;
    }
    25%, 75% {
      translate: 0 -0.5rem;
    }
  }
  </style>
</svg>