<svg id="visual" viewBox="0 0 900 450" width="900" height="450" xmlns="http://www.w3.org/2000/svg" xmlns:xlink="http://www.w3.org/1999/xlink" version="1.1"><path d="M0 78L13.7 87.7C27.3 97.3 54.7 116.7 82 116.7C109.3 116.7 136.7 97.3 163.8 101.2C191 105 218 132 245.2 140.2C272.3 148.3 299.7 137.7 327 121.2C354.3 104.7 381.7 82.3 409 83.8C436.3 85.3 463.7 110.7 491 118.8C518.3 127 545.7 118 573 120.3C600.3 122.7 627.7 136.3 654.8 128.8C682 121.3 709 92.7 736.2 79.8C763.3 67 790.7 70 818 75.3C845.3 80.7 872.7 88.3 886.3 92.2L900 96L900 0L886.3 0C872.7 0 845.3 0 818 0C790.7 0 763.3 0 736.2 0C709 0 682 0 654.8 0C627.7 0 600.3 0 573 0C545.7 0 518.3 0 491 0C463.7 0 436.3 0 409 0C381.7 0 354.3 0 327 0C299.7 0 272.3 0 245.2 0C218 0 191 0 163.8 0C136.7 0 109.3 0 82 0C54.7 0 27.3 0 13.7 0L0 0Z" fill="#6f94f6"></path><path d="M0 172L13.7 172.8C27.3 173.7 54.7 175.3 82 168.7C109.3 162 136.7 147 163.8 150C191 153 218 174 245.2 181.5C272.3 189 299.7 183 327 174C354.3 165 381.7 153 409 159.7C436.3 166.3 463.7 191.7 491 201.3C518.3 211 545.7 205 573 202.8C600.3 200.7 627.7 202.3 654.8 194.2C682 186 709 168 736.2 157.5C763.3 147 790.7 144 818 148.5C845.3 153 872.7 165 886.3 171L900 177L900 94L886.3 90.2C872.7 86.3 845.3 78.7 818 73.3C790.7 68 763.3 65 736.2 77.8C709 90.7 682 119.3 654.8 126.8C627.7 134.3 600.3 120.7 573 118.3C545.7 116 518.3 125 491 116.8C463.7 108.7 436.3 83.3 409 81.8C381.7 80.3 354.3 102.7 327 119.2C299.7 135.7 272.3 146.3 245.2 138.2C218 130 191 103 163.8 99.2C136.7 95.3 109.3 114.7 82 114.7C54.7 114.7 27.3 95.3 13.7 85.7L0 76Z" fill="#4e7cf1"></path><path d="M0 226L13.7 229C27.3 232 54.7 238 82 229.8C109.3 221.7 136.7 199.3 163.8 203.8C191 208.3 218 239.7 245.2 248.7C272.3 257.7 299.7 244.3 327 232.3C354.3 220.3 381.7 209.7 409 219.3C436.3 229 463.7 259 491 267.3C518.3 275.7 545.7 262.3 573 257.2C600.3 252 627.7 255 654.8 243C682 231 709 204 736.2 195C763.3 186 790.7 195 818 207C845.3 219 872.7 234 886.3 241.5L900 249L900 175L886.3 169C872.7 163 845.3 151 818 146.5C790.7 142 763.3 145 736.2 155.5C709 166 682 184 654.8 192.2C627.7 200.3 600.3 198.7 573 200.8C545.7 203 518.3 209 491 199.3C463.7 189.7 436.3 164.3 409 157.7C381.7 151 354.3 163 327 172C299.7 181 272.3 187 245.2 179.5C218 172 191 151 163.8 148C136.7 145 109.3 160 82 166.7C54.7 173.3 27.3 171.7 13.7 170.8L0 170Z" fill="#2563eb"></path><path d="M0 289L13.7 294.3C27.3 299.7 54.7 310.3 82 311.8C109.3 313.3 136.7 305.7 163.8 314.7C191 323.7 218 349.3 245.2 353.2C272.3 357 299.7 339 327 325.5C354.3 312 381.7 303 409 306.7C436.3 310.3 463.7 326.7 491 325.2C518.3 323.7 545.7 304.3 573 299.2C600.3 294 627.7 303 654.8 302.2C682 301.3 709 290.7 736.2 284.7C763.3 278.7 790.7 277.3 818 289.3C845.3 301.3 872.7 326.7 886.3 339.3L900 352L900 247L886.3 239.5C872.7 232 845.3 217 818 205C790.7 193 763.3 184 736.2 193C709 202 682 229 654.8 241C627.7 253 600.3 250 573 255.2C545.7 260.3 518.3 273.7 491 265.3C463.7 257 436.3 227 409 217.3C381.7 207.7 354.3 218.3 327 230.3C299.7 242.3 272.3 255.7 245.2 246.7C218 237.7 191 206.3 163.8 201.8C136.7 197.3 109.3 219.7 82 227.8C54.7 236 27.3 230 13.7 227L0 224Z" fill="#1d55cc"></path><path d="M0 451L13.7 451C27.3 451 54.7 451 82 451C109.3 451 136.7 451 163.8 451C191 451 218 451 245.2 451C272.3 451 299.7 451 327 451C354.3 451 381.7 451 409 451C436.3 451 463.7 451 491 451C518.3 451 545.7 451 573 451C600.3 451 627.7 451 654.8 451C682 451 709 451 736.2 451C763.3 451 790.7 451 818 451C845.3 451 872.7 451 886.3 451L900 451L900 350L886.3 337.3C872.7 324.7 845.3 299.3 818 287.3C790.7 275.3 763.3 276.7 736.2 282.7C709 288.7 682 299.3 654.8 300.2C627.7 301 600.3 292 573 297.2C545.7 302.3 518.3 321.7 491 323.2C463.7 324.7 436.3 308.3 409 304.7C381.7 301 354.3 310 327 323.5C299.7 337 272.3 355 245.2 351.2C218 347.3 191 321.7 163.8 312.7C136.7 303.7 109.3 311.3 82 309.8C54.7 308.3 27.3 297.7 13.7 292.3L0 287Z" fill="#1748ad"></path></svg>